<svg xmlns="http://www.w3.org/2000/svg" xmlns:xlink="http://www.w3.org/1999/xlink" version="1.1" x="0px" y="0px" viewBox="0 0 32 32" enable-background="new 0 0 32 32" xml:space="preserve"><path d="M12.864,6.852C14.194,6.291,16,6.354,16,6.354s1.806-0.063,3.136,0.498c0.509-0.357,0.918-0.82,1.053-1.445  c0.018-0.077,0.003-0.145,0.003-0.217C19.976,5.1,18.006,4.291,16,4.291c-1.881,0-3.408,0.473-4.191,0.895  c-0.001,0.074-0.015,0.143,0.003,0.221C11.946,6.031,12.355,6.494,12.864,6.852z"></path><path d="M25.604,9.201c-0.644-0.965-3.376-1.967-4.204-2.254c-0.432-0.527-0.678-0.975-0.801-1.227  c-0.291,0.94-1.069,1.551-1.911,1.959v11.279c0,0.138-0.112,0.25-0.25,0.25s-0.25-0.112-0.25-0.25V7.895  c-0.745,0.289-1.479,0.447-1.919,0.535L16,8.484L15.731,8.43c-0.44-0.088-1.174-0.246-1.919-0.535v11.064  c0,0.138-0.112,0.25-0.25,0.25s-0.25-0.112-0.25-0.25V7.68c-0.842-0.408-1.62-1.019-1.911-1.959  c-0.123,0.252-0.369,0.699-0.801,1.227C9.772,7.234,7.04,8.236,6.396,9.201c-0.777,1.166-0.864,11.338-0.479,13.826  c0.002,0.019,0.215,1.814,0.215,2.607c0,0.277,0.225,0.5,0.5,0.5l1.818,0.017c0.271,0,0.492-0.215,0.5-0.485  c0.02-0.645,0.189-1.674,0.3-2.031c0.25-0.813,0.125-3.781,0.644-5.719c0.007,2.74-0.058,8.422-0.287,9.141  c-0.048,0.152-0.021,0.318,0.073,0.447c0.095,0.129,0.244,0.205,0.403,0.205H16h5.917c0.159,0,0.309-0.076,0.403-0.205  c0.094-0.129,0.121-0.295,0.073-0.447c-0.229-0.719-0.294-6.4-0.287-9.141c0.519,1.938,0.394,4.906,0.644,5.719  c0.11,0.357,0.28,1.387,0.3,2.031c0.008,0.271,0.229,0.485,0.5,0.485l1.818-0.017c0.275,0,0.5-0.223,0.5-0.5  c0-0.793,0.213-2.589,0.215-2.607C26.468,20.539,26.381,10.367,25.604,9.201z"></path></svg>