<?xml version="1.0" encoding="utf-8"?><svg xml:space="preserve" viewBox="0 0 100 100" y="0" x="0" xmlns="http://www.w3.org/2000/svg" id="圖層_1" version="1.1" width="200px" height="200px" xmlns:xlink="http://www.w3.org/1999/xlink" style="width:100%;height:100%;background-size:initial;background-repeat-y:initial;background-repeat-x:initial;background-position-y:initial;background-position-x:initial;background-origin:initial;background-image:initial;background-color:rgb(255, 255, 255);background-clip:initial;background-attachment:initial;animation-play-state:paused" ><g class="ldl-scale" style="transform-origin:50% 50%;transform:rotate(0deg) scale(0.8, 0.8);animation-play-state:paused" ><path fill="#333" d="M74.5 36.8l-1-.2c-4.4-1.1-7.4-5.1-7.4-9.9V7.5h-7.6v14.4c0 2.6-2 4.8-4.5 4.8h-8c-2.5 0-4.5-2.1-4.5-4.8V7.5h-7.6v19.2c0 4.8-3.1 8.9-7.4 9.9l-1 .2-4.1 47.5v.1c0 2.9 3.1 5 9.6 6.4 5 1.1 11.8 1.7 19 1.7 4.8 0 28.6-.4 28.6-8.1l-4.1-47.6zM41.4 56.6h17.3c2.7 0 4.9 2.2 4.9 4.9v12.8c0 5.1-6.8 7.4-13.5 7.4-3.4 0-6.5-.6-8.9-1.6-3-1.3-4.6-3.4-4.6-5.8V61.5c-.1-2.7 2.1-4.9 4.8-4.9z" style="fill:rgb(51, 51, 51);animation-play-state:paused" ></path>
<path fill="#333" d="M50 78.8c5.2 0 10.6-1.7 10.6-4.5V61.5c0-1.1-.9-2-2-2H41.4c-1.1 0-2 .9-2 2v12.8c0 2.8 5.4 4.5 10.6 4.5z" style="fill:rgb(51, 51, 51);animation-play-state:paused" ></path>
<metadata xmlns:d="https://loading.io/stock/" style="animation-play-state:paused" ><d:name style="animation-play-state:paused" >apron</d:name>


<d:tags style="animation-play-state:paused" >apron,pinafore,jumper,bib,kitchen,cooking,garment</d:tags>


<d:license style="animation-play-state:paused" >by</d:license>


<d:slug style="animation-play-state:paused" >xer9vh</d:slug></metadata></g><!-- generated by https://loading.io/ --></svg>