<svg xmlns="http://www.w3.org/2000/svg" xmlns:xlink="http://www.w3.org/1999/xlink" version="1.1" x="0px" y="0px" viewBox="0 0 100 100" enable-background="new 0 0 100 100" xml:space="preserve"><g><path d="M43.2,79.1c0.1-0.1,0.1-0.3,0.2-0.4c0.3-5.4,0.5-10.6,0.3-13.8c0,0,3.3-11.1,5-17.3c-1.2-1.8-2.8-4.1-4.6-6.7   c-3.3-4.7-5.8-7.9-7.6-10.2c-0.4-0.5-0.7-0.9-1-1.3c0.5,4.8,1,12.9,0.1,18.5c-1.4,8.5-0.7,14.3-0.7,14.3s-2.4,8.2-1.2,17.4   c0.5,4,1,8,1.4,11.2c0.1,0,0.2-0.1,0.2-0.1c0.5-0.2,0.9-0.2,1.3-0.3c1.3-0.2,2.4-0.5,4.2-4.5C41.4,84.4,42.3,81.9,43.2,79.1z"></path><path d="M68,54.9c0.5-8.3-14-29.9-15.2-32.7s4.1-7.4,4.1-7.4C52.3,2.7,42.7,5.2,42.7,5.2c-3,1.3-5.1,3.2-6.7,5   c-2.4,2.9-3.7,6.6-3.7,10.4c0,5.2,3,6.3,12.5,19.8c11.7,16.7,10.1,16.3,10.1,16.3c-6.6,7.4-10.7,24-13.3,29.6   c-0.9,2.1-1.7,3.3-2.5,3.9c1.1,1.5,3.2,3.4,7.2,4.8c5.3-11.8,17.1-31.3,17.1-31.3C68.5,57.5,68,54.9,68,54.9z"></path></g></svg>