<svg xmlns="http://www.w3.org/2000/svg" xmlns:xlink="http://www.w3.org/1999/xlink" version="1.1" x="0px" y="0px" viewBox="0 0 64 64" style="enable-background:new 0 0 64 64;" xml:space="preserve"><path d="M27.15,58.04h17.36c5.92,0,9.59-0.97,9.59-5.83V25.26H17.56v26.95C17.56,57.06,21.23,58.04,27.15,58.04z"></path><path d="M15.81,47.19V28.58h-1.68c-2.33,0-4.23,1.9-4.23,4.23v10.15c0,2.33,1.9,4.23,4.23,4.23H15.81z"></path><path d="M23.6,21.32l1.47,0.94l0.2-0.32c0.15-0.24,3.65-5.83-0.2-8.66c-0.51-0.37-0.77-0.81-0.82-1.38  c-0.16-1.62,1.46-3.78,2.1-4.48l0.25-0.28l-1.29-1.18l-0.25,0.28c-0.12,0.13-2.82,3.09-2.56,5.83c0.1,1.07,0.62,1.95,1.53,2.62  c2.52,1.86-0.21,6.27-0.24,6.32L23.6,21.32z"></path><path d="M34.75,21.32l1.48,0.94l0.2-0.32c0.15-0.24,3.64-5.83-0.2-8.66c-0.51-0.37-0.77-0.81-0.82-1.38  c-0.16-1.62,1.46-3.78,2.1-4.48l0.25-0.28l-1.29-1.18l-0.25,0.28c-0.29,0.31-2.81,3.15-2.56,5.83c0.1,1.07,0.62,1.95,1.53,2.62  c2.53,1.87-0.21,6.27-0.24,6.32L34.75,21.32z"></path><path d="M45.91,21.32l1.48,0.94l0.2-0.32c0.15-0.24,3.64-5.83-0.2-8.66c-0.51-0.37-0.77-0.81-0.82-1.38  c-0.16-1.62,1.46-3.78,2.1-4.48l0.25-0.28l-1.29-1.18l-0.25,0.28c-0.29,0.31-2.81,3.15-2.56,5.83c0.1,1.07,0.62,1.95,1.53,2.62  c2.53,1.87-0.21,6.27-0.24,6.32L45.91,21.32z"></path></svg>