<svg xmlns="http://www.w3.org/2000/svg" xmlns:xlink="http://www.w3.org/1999/xlink" viewBox="0 0 286 270" version="1.1" x="0px" y="0px"><title>sweatshirt</title><desc>Created with Sketch.</desc><g stroke="none" stroke-width="1" fill="none" fill-rule="evenodd"><g transform="translate(-7733.000000, -8434.000000)" fill="#000000"><path d="M7823.38348,8440 C7834.38348,8436.8 7844.08348,8434.1 7844.88348,8434.1 C7845.78348,8434 7847.18348,8435.9 7848.18348,8438.4 C7851.28348,8445.9 7899.38348,8446.2 7902.58348,8438.5 C7903.58348,8436 7904.78348,8434 7905.28348,8434 C7907.28348,8434 7953.88348,8447.3 7960.98348,8450.1 C7975.28348,8455.6 7977.68348,8458.4 7981.78348,8474.7 C7988.08348,8499.6 8012.88348,8560.9 8016.98348,8634.9 L8018.28348,8657.3 L8016.08348,8659.1 C8014.48348,8660.4 8013.88348,8661.9 8013.88348,8664.9 L8013.88348,8669.1 L8003.68348,8668.8 L7975.38348,8668.5 L7974.48348,8663.8 C7973.88348,8660 7973.28348,8659 7971.78348,8659 C7970.68348,8659 7969.38348,8658 7968.88348,8656.7 C7968.48348,8655.5 7964.58348,8628.2 7960.38348,8596 C7956.18348,8563.8 7952.38348,8569.9 7951.88348,8568 C7951.5553,8566.62165 7944.03814,8610.54267 7949.33199,8699.76308 C7949.33668,8699.84197 7949.33902,8699.92097 7949.33902,8700 C7949.33902,8702.20913 7947.54816,8703.99999 7945.33903,8703.99999 L7875.88348,8704 L7806.43533,8704 C7806.35397,8704 7806.27264,8703.99752 7806.19144,8703.99256 C7803.98641,8703.85786 7802.30807,8701.96114 7802.44277,8699.75611 C7807.93453,8609.85409 7800.61477,8564.96872 7800.48348,8565.1 C7800.28348,8565.3 7796.38348,8559.2 7791.98348,8593 C7787.48348,8626.8 7783.58348,8655.5 7783.38348,8656.8 C7782.98348,8658.3 7782.08348,8659 7780.48348,8659 C7778.38348,8659 7778.08348,8659.6 7777.38348,8664.5 L7776.78348,8670 L7737.88348,8670 L7737.88348,8665.4 C7737.88348,8661.9 7737.38348,8660.4 7735.68348,8659 L7733.48348,8657.2 L7735.28348,8628.9 C7741.28348,8532.5 7765.48348,8483.5 7773.08348,8464.4 C7776.88348,8454.6 7784.38348,8451.4 7823.38348,8440 Z"></path></g></g></svg>