<?xml version="1.0" encoding="utf-8"?><!DOCTYPE svg PUBLIC "-//W3C//DTD SVG 1.1//EN" "http://www.w3.org/Graphics/SVG/1.1/DTD/svg11.dtd"><svg version="1.1" xmlns="http://www.w3.org/2000/svg" xmlns:xlink="http://www.w3.org/1999/xlink" x="0px" y="0px" viewBox="18.738 0 62.525 100" enable-background="new 18.738 0 62.525 100" xml:space="preserve"><g><path d="M81.204,41.356c-1.972-1.254-6.969-10.881-8.582-18.235c-1.614-7.354-1.005-15.374-0.025-20.413
		c-4.396-3.099-10.85-2.689-10.85-2.689s0.866,12.823-1.107,17.665c-1.972,4.842-5.977,8.16-10.64,8.25
		c-4.663-0.089-8.667-3.407-10.64-8.25c-1.973-4.841-1.107-17.665-1.107-17.665s-6.454-0.409-10.85,2.69
		c0.979,5.04,1.589,13.06-0.025,20.413c-1.613,7.354-6.61,16.979-8.583,18.235c-0.474,1.587,2.091,11,2.152,30.546
		C21.008,91.451,18.975,100,18.975,100H50h31.025c0,0-2.033-8.549-1.974-28.097C79.111,52.354,81.678,42.942,81.204,41.356z"></path></g></svg>