<svg xmlns="http://www.w3.org/2000/svg" xmlns:xlink="http://www.w3.org/1999/xlink" version="1.1" x="0px" y="0px" viewBox="0 0 24 24" enable-background="new 0 0 24 24" xml:space="preserve"><g><path fill-rule="evenodd" clip-rule="evenodd" d="M12,6.688c0.493-0.856,1.015-1.533,1.639-2.032   c0.843-0.674,1.842-1.011,3.161-1.011c1.463,0,2.788,0.594,3.747,1.553C21.506,6.157,22.1,7.482,22.1,8.945   c0,3.472-2.251,5.186-5.241,7.462c-1.39,1.059-2.949,2.245-4.505,3.802c-0.195,0.194-0.512,0.194-0.707,0   c-1.557-1.557-3.115-2.744-4.506-3.803c-2.989-2.275-5.241-3.991-5.241-7.461c0-1.462,0.594-2.788,1.554-3.747   C4.412,4.239,5.737,3.645,7.2,3.645c1.319,0,2.318,0.337,3.161,1.011C10.985,5.156,11.507,5.833,12,6.688z"></path></g></svg>